<svg width="33" height="33" viewBox="0 0 33 33" fill="none" xmlns="http://www.w3.org/2000/svg">
<rect x="4.5" y="4.5" width="23" height="23" rx="5.5" fill="url(#paint0_linear_485_19)"/>
<rect x="4.5" y="4.5" width="23" height="23" rx="5.5" fill="url(#paint1_radial_485_19)" fill-opacity="0.2"/>
<rect x="4.5" y="4.5" width="23" height="23" rx="5.5" stroke="black"/>
<path d="M10 15V24H14V15C14 15 12.8732 16 12 16C11.1268 16 10 15 10 15Z" fill="url(#paint2_linear_485_19)"/>
<path d="M17.5 14H16V24H18V18C18 18 18.5237 16 19.5 16C20.4763 16 21 18 21 18V24H23V17C23 17 22.0479 14.3493 21 14C20.259 13.753 19.7252 13.7099 19 14C18.2308 14.3077 17.5 15.5 17.5 15.5V14Z" fill="url(#paint3_linear_485_19)"/>
<circle cx="12" cy="13" r="2" fill="white"/>
<defs>
<linearGradient id="paint0_linear_485_19" x1="16" y1="5" x2="16" y2="27" gradientUnits="userSpaceOnUse">
<stop stop-color="#4DA0FF"/>
<stop offset="1" stop-color="#2E6099"/>
</linearGradient>
<radialGradient id="paint1_radial_485_19" cx="0" cy="0" r="1" gradientUnits="userSpaceOnUse" gradientTransform="translate(16 5) rotate(90) scale(22)">
<stop stop-color="white"/>
<stop offset="1" stop-color="#AAAAAA" stop-opacity="0"/>
</radialGradient>
<linearGradient id="paint2_linear_485_19" x1="12" y1="15" x2="12" y2="24" gradientUnits="userSpaceOnUse">
<stop stop-color="white"/>
<stop offset="1" stop-color="#999999"/>
</linearGradient>
<linearGradient id="paint3_linear_485_19" x1="19.5" y1="13.7983" x2="19.5" y2="24" gradientUnits="userSpaceOnUse">
<stop stop-color="white"/>
<stop offset="1" stop-color="#999999"/>
</linearGradient>
</defs>
</svg>
