<svg width="33" height="33" viewBox="0 0 33 33" fill="none" xmlns="http://www.w3.org/2000/svg">
<path d="M23.7808 24.5C24.3983 23.8825 24.2808 23 24.2808 23L23.2808 22H20.2808H16.2808C15.3003 21.2872 14.9975 20.8703 16.2808 20C16.2808 20 24.5 20 25.5 19.5C26.5 19 27 18 27 18C27 18 27.5 15.5 26 14.5C24.5 13.5 24.2808 14 24.2808 14L23 15.5C21.7192 17 11.9127 16.7363 11.2808 18C10.649 19.2637 11.2808 22 11.2808 22C11.2808 22 11.7808 24.5 13.7808 25.5C15.7808 26.5 18.7808 27 21.2808 26C23.7808 25 23.1634 25.1175 23.7808 24.5Z" fill="#FFD64D" stroke="black" stroke-width="2"/>
<path d="M10.2992 8.04508C9.6817 8.66256 9.79917 9.54509 9.79917 9.54509L10.7992 10.5451H13.7992H17.7992C18.7797 11.2579 19.0825 11.6748 17.7992 12.5451C17.7992 12.5451 9.58 12.5451 8.58 13.0451C7.58 13.5451 7.08 14.5451 7.08 14.5451C7.08 14.5451 6.58 17.0451 8.08 18.0451C9.58 19.0451 9.79917 18.5451 9.79917 18.5451L11.08 17.0451C12.3608 15.5451 22.1673 15.8088 22.7992 14.5451C23.431 13.2814 22.7992 10.5451 22.7992 10.5451C22.7992 10.5451 22.2992 8.04509 20.2992 7.04509C18.2992 6.04509 15.2992 5.54508 12.7992 6.54509C10.2992 7.54509 10.9166 7.42761 10.2992 8.04508Z" fill="#4DA0FF" stroke="black" stroke-width="2"/>
<path d="M23.7808 24.5C24.3983 23.8825 24.2808 23 24.2808 23L23.2808 22H20.2808H16.2808C15.3003 21.2872 14.9975 20.8703 16.2808 20C16.2808 20 24.5 20 25.5 19.5C26.5 19 27 18 27 18C27 18 27.5 15.5 26 14.5C24.5 13.5 24.2808 14 24.2808 14L23 15.5C21.7192 17 11.9127 16.7363 11.2808 18C10.649 19.2637 11.2808 22 11.2808 22C11.2808 22 11.7808 24.5 13.7808 25.5C15.7808 26.5 18.7808 27 21.2808 26C23.7808 25 23.1634 25.1175 23.7808 24.5Z" fill="url(#paint0_linear_479_15)"/>
<path d="M23.7808 24.5C24.3983 23.8825 24.2808 23 24.2808 23L23.2808 22H20.2808H16.2808C15.3003 21.2872 14.9975 20.8703 16.2808 20C16.2808 20 24.5 20 25.5 19.5C26.5 19 27 18 27 18C27 18 27.5 15.5 26 14.5C24.5 13.5 24.2808 14 24.2808 14L23 15.5C21.7192 17 11.9127 16.7363 11.2808 18C10.649 19.2637 11.2808 22 11.2808 22C11.2808 22 11.7808 24.5 13.7808 25.5C15.7808 26.5 18.7808 27 21.2808 26C23.7808 25 23.1634 25.1175 23.7808 24.5Z" fill="url(#paint1_linear_479_15)"/>
<path d="M21.28 24.6862C21.28 25.2385 21.0561 25.3535 20.78 25.3535C20.5039 25.3535 20.28 25.2385 20.28 24.6862C20.28 24.1339 20.5039 24.9862 20.78 24.9862C21.0561 24.9862 21.28 24.1339 21.28 24.6862Z" fill="url(#paint2_linear_479_15)"/>
<circle cx="20.7808" cy="24.5" r="0.5" transform="rotate(180 20.7808 24.5)" fill="black"/>
<path d="M10.2992 8.04508C9.6817 8.66256 9.79917 9.54509 9.79917 9.54509L10.7992 10.5451H13.7992H17.7992C18.7797 11.2579 19.0825 11.6748 17.7992 12.5451C17.7992 12.5451 9.58 12.5451 8.58 13.0451C7.58 13.5451 7.08 14.5451 7.08 14.5451C7.08 14.5451 6.58 17.0451 8.08 18.0451C9.58 19.0451 9.79917 18.5451 9.79917 18.5451L11.08 17.0451C12.3608 15.5451 22.1673 15.8088 22.7992 14.5451C23.431 13.2814 22.7992 10.5451 22.7992 10.5451C22.7992 10.5451 22.2992 8.04509 20.2992 7.04509C18.2992 6.04509 15.2992 5.54508 12.7992 6.54509C10.2992 7.54509 10.9166 7.42761 10.2992 8.04508Z" fill="url(#paint3_linear_479_15)"/>
<path d="M10.2992 8.04508C9.6817 8.66256 9.79917 9.54509 9.79917 9.54509L10.7992 10.5451H13.7992H17.7992C18.7797 11.2579 19.0825 11.6748 17.7992 12.5451C17.7992 12.5451 9.58 12.5451 8.58 13.0451C7.58 13.5451 7.08 14.5451 7.08 14.5451C7.08 14.5451 6.58 17.0451 8.08 18.0451C9.58 19.0451 9.79917 18.5451 9.79917 18.5451L11.08 17.0451C12.3608 15.5451 22.1673 15.8088 22.7992 14.5451C23.431 13.2814 22.7992 10.5451 22.7992 10.5451C22.7992 10.5451 22.2992 8.04509 20.2992 7.04509C18.2992 6.04509 15.2992 5.54508 12.7992 6.54509C10.2992 7.54509 10.9166 7.42761 10.2992 8.04508Z" fill="url(#paint4_radial_479_15)"/>
<path d="M14 8.7C14 9.25229 13.7761 9.5 13.5 9.5C13.2239 9.5 13 9.25229 13 8.7C13 8.14772 13.2239 9 13.5 9C13.7761 9 14 8.14772 14 8.7Z" fill="url(#paint5_linear_479_15)"/>
<circle cx="13.5" cy="8.5" r="0.5" fill="url(#paint6_radial_479_15)"/>
<defs>
<linearGradient id="paint0_linear_479_15" x1="19.04" y1="13.875" x2="19.04" y2="26.5451" gradientUnits="userSpaceOnUse">
<stop stop-color="#FFD64D"/>
<stop offset="1" stop-color="#86702A"/>
</linearGradient>
<linearGradient id="paint1_linear_479_15" x1="19" y1="14" x2="20" y2="19" gradientUnits="userSpaceOnUse">
<stop/>
<stop offset="1" stop-color="#666666" stop-opacity="0"/>
</linearGradient>
<linearGradient id="paint2_linear_479_15" x1="20.78" y1="24.4862" x2="20.78" y2="25.9862" gradientUnits="userSpaceOnUse">
<stop/>
<stop offset="1" stop-color="white" stop-opacity="0"/>
</linearGradient>
<linearGradient id="paint3_linear_479_15" x1="15.04" y1="6" x2="15.04" y2="18.6701" gradientUnits="userSpaceOnUse">
<stop stop-color="#4DA0FF"/>
<stop offset="1" stop-color="#2B5688"/>
</linearGradient>
<radialGradient id="paint4_radial_479_15" cx="0" cy="0" r="1" gradientUnits="userSpaceOnUse" gradientTransform="translate(15 -0.499999) rotate(90) scale(16.5 20.9407)">
<stop stop-color="white"/>
<stop offset="1" stop-color="white" stop-opacity="0"/>
</radialGradient>
<linearGradient id="paint5_linear_479_15" x1="13.5" y1="8.5" x2="13.5" y2="10" gradientUnits="userSpaceOnUse">
<stop/>
<stop offset="1" stop-color="white" stop-opacity="0"/>
</linearGradient>
<radialGradient id="paint6_radial_479_15" cx="0" cy="0" r="1" gradientUnits="userSpaceOnUse" gradientTransform="translate(13.2008 7.95492) rotate(74.025) scale(1.08706)">
<stop stop-color="#C5B9B9"/>
<stop offset="1"/>
</radialGradient>
</defs>
</svg>
