<svg width="33" height="33" viewBox="0 0 33 33" fill="none" xmlns="http://www.w3.org/2000/svg">
<path d="M16.5 13C20.1594 13 23.4343 13.4403 25.7617 14.1299C26.9318 14.4766 27.8061 14.8701 28.3652 15.2617C28.9525 15.6731 29 15.9383 29 16C29 16.0617 28.9525 16.3269 28.3652 16.7383C27.8061 17.1299 26.9318 17.5234 25.7617 17.8701C23.4343 18.5597 20.1594 19 16.5 19C12.8406 19 9.56573 18.5597 7.23828 17.8701C6.06823 17.5234 5.19389 17.1299 4.63477 16.7383C4.04753 16.3269 4 16.0617 4 16C4 15.9383 4.04753 15.6731 4.63477 15.2617C5.19389 14.8701 6.06823 14.4766 7.23828 14.1299C9.56573 13.4403 12.8406 13 16.5 13Z" stroke="black" stroke-width="2"/>
<path d="M19.0399 13.9844C21.3922 16.7877 23.1599 19.5794 24.1277 21.8056C24.6142 22.9247 24.8748 23.8474 24.9342 24.5275C24.9965 25.2418 24.824 25.4486 24.7767 25.4883C24.7294 25.528 24.4957 25.662 23.8031 25.4766C23.1437 25.3 22.2802 24.8832 21.2625 24.2097C19.2382 22.87 16.7959 20.6444 14.4437 17.8411C12.0914 15.0378 10.3237 12.2461 9.3559 10.02C8.86938 8.90079 8.60883 7.97806 8.54943 7.29801C8.48709 6.58374 8.65967 6.37688 8.70696 6.33719C8.75426 6.29751 8.98795 6.16347 9.68054 6.3489C10.3399 6.52548 11.2034 6.9423 12.2211 7.61577C14.2454 8.95545 16.6877 11.1811 19.0399 13.9844Z" stroke="black" stroke-width="2"/>
<path d="M18.8411 18.0399C16.0378 20.3922 13.2461 22.1599 11.02 23.1277C9.90079 23.6142 8.97805 23.8748 8.29801 23.9342C7.58374 23.9965 7.37688 23.824 7.33719 23.7767C7.29751 23.7294 7.16347 23.4957 7.3489 22.8031C7.52548 22.1437 7.9423 21.2802 8.61577 20.2625C9.95545 18.2382 12.1811 15.7959 14.9844 13.4437C17.7877 11.0915 20.5794 9.32371 22.8055 8.3559C23.9247 7.86938 24.8474 7.60883 25.5275 7.54943C26.2418 7.48709 26.4486 7.65967 26.4883 7.70697C26.528 7.75427 26.662 7.98795 26.4766 8.68054C26.3 9.33994 25.8832 10.2034 25.2097 11.2211C23.87 13.2454 21.6444 15.6877 18.8411 18.0399Z" stroke="black" stroke-width="2"/>
<ellipse cx="16.5" cy="16" rx="13.5" ry="4" stroke="black" stroke-width="2"/>
<ellipse cx="16.7418" cy="15.9128" rx="13.5" ry="4" transform="rotate(50 16.7418 15.9128)" stroke="black" stroke-width="2"/>
<ellipse cx="16.9128" cy="15.7418" rx="13.5" ry="4" transform="rotate(140 16.9128 15.7418)" stroke="black" stroke-width="2"/>
<circle cx="17" cy="16" r="2" fill="black" stroke="black" stroke-width="2"/>
<path d="M16.5 12.5C20.1937 12.5 23.5191 12.9446 25.9043 13.6514C27.0999 14.0057 28.0313 14.4175 28.6523 14.8525C29.2875 15.2975 29.5 15.693 29.5 16C29.5 16.307 29.2875 16.7025 28.6523 17.1475C28.0313 17.5825 27.0999 17.9943 25.9043 18.3486C23.5191 19.0554 20.1937 19.5 16.5 19.5C12.8063 19.5 9.48095 19.0554 7.0957 18.3486C5.90007 17.9943 4.9687 17.5825 4.34766 17.1475C3.71253 16.7025 3.5 16.307 3.5 16C3.5 15.693 3.71253 15.2975 4.34766 14.8525C4.9687 14.4175 5.90007 14.0057 7.0957 13.6514C9.48095 12.9446 12.8063 12.5 16.5 12.5Z" stroke="#0099FF"/>
<path d="M19.423 13.663C21.7973 16.4926 23.5941 19.3257 24.5859 21.6072C25.0831 22.7508 25.3663 23.729 25.4322 24.4844C25.4996 25.2569 25.3332 25.674 25.098 25.8713C24.8629 26.0687 24.4233 26.1601 23.6742 25.9596C22.9417 25.7635 22.0276 25.3147 20.9876 24.6265C18.913 23.2536 16.4349 20.9921 14.0607 18.1625C11.6864 15.3329 9.8895 12.4998 8.89769 10.2183C8.40056 9.07467 8.11736 8.09649 8.05143 7.34109C7.98402 6.56856 8.15039 6.15151 8.38557 5.95417C8.62075 5.75684 9.06035 5.66541 9.80944 5.86594C10.5419 6.06204 11.4561 6.5108 12.496 7.19897C14.5706 8.57189 17.0487 10.8334 19.423 13.663Z" stroke="#0099FF"/>
<path d="M19.1625 18.423C16.3329 20.7973 13.4998 22.5941 11.2183 23.5859C10.0747 24.0831 9.09648 24.3663 8.34109 24.4322C7.56856 24.4996 7.15151 24.3332 6.95417 24.0981C6.75684 23.8629 6.66541 23.4233 6.86594 22.6742C7.06204 21.9417 7.5108 21.0276 8.19897 19.9876C9.57189 17.913 11.8334 15.4349 14.663 13.0607C17.4926 10.6864 20.3257 8.8895 22.6072 7.89769C23.7508 7.40056 24.729 7.11736 25.4844 7.05143C26.2569 6.98402 26.674 7.1504 26.8713 7.38557C27.0687 7.62075 27.1601 8.06035 26.9596 8.80944C26.7635 9.54191 26.3147 10.4561 25.6265 11.496C24.2536 13.5706 21.9921 16.0487 19.1625 18.423Z" stroke="#0099FF"/>
<circle cx="17" cy="16" r="2" fill="#0099FF"/>
</svg>
