<svg width="23" height="23" viewBox="0 0 23 23" fill="none" xmlns="http://www.w3.org/2000/svg">
<path d="M18.25 21.25H4.75V1.75H13.1035L18.25 6.89648V21.25Z" fill="#FFFDD4" stroke="black" stroke-width="0.5"/>
<path d="M18 7C16.0474 7 13 7 13 5.33333V2L18 7Z" fill="#D1CFC3"/>
<path d="M8.8608 9.14489H8.15057C8.1411 9.07197 8.12169 9.00616 8.09233 8.94744C8.06297 8.88873 8.02415 8.83854 7.97585 8.79688C7.92756 8.75521 7.87027 8.72348 7.80398 8.7017C7.73864 8.67898 7.66619 8.66761 7.58665 8.66761C7.44555 8.66761 7.32386 8.70218 7.22159 8.77131C7.12027 8.84044 7.04214 8.94034 6.98722 9.07102C6.93324 9.2017 6.90625 9.35985 6.90625 9.54545C6.90625 9.73864 6.93371 9.90057 6.98864 10.0312C7.04451 10.161 7.12263 10.259 7.22301 10.3253C7.32434 10.3906 7.44413 10.4233 7.58239 10.4233C7.66004 10.4233 7.73059 10.4134 7.79403 10.3935C7.85843 10.3736 7.91477 10.3447 7.96307 10.3068C8.01231 10.268 8.05256 10.2211 8.08381 10.1662C8.116 10.1103 8.13826 10.0473 8.15057 9.97727L8.8608 9.98153C8.84848 10.1103 8.81108 10.2372 8.74858 10.3622C8.68703 10.4872 8.60227 10.6013 8.49432 10.7045C8.38636 10.8068 8.25473 10.8883 8.09943 10.9489C7.94508 11.0095 7.76799 11.0398 7.56818 11.0398C7.30492 11.0398 7.06913 10.982 6.8608 10.8665C6.65341 10.75 6.48958 10.5805 6.36932 10.358C6.24905 10.1354 6.18892 9.86458 6.18892 9.54545C6.18892 9.22538 6.25 8.95407 6.37216 8.73153C6.49432 8.509 6.65956 8.33996 6.8679 8.22443C7.07623 8.1089 7.30966 8.05114 7.56818 8.05114C7.74432 8.05114 7.9072 8.07576 8.05682 8.125C8.20644 8.1733 8.33807 8.24432 8.4517 8.33807C8.56534 8.43087 8.65767 8.54498 8.72869 8.6804C8.79972 8.81581 8.84375 8.97064 8.8608 9.14489ZM10.8356 8.96307C10.8261 8.8589 10.784 8.77794 10.7092 8.72017C10.6353 8.66146 10.5297 8.6321 10.3924 8.6321C10.3015 8.6321 10.2257 8.64394 10.1651 8.66761C10.1045 8.69129 10.0591 8.72396 10.0288 8.76562C9.99846 8.80634 9.98284 8.85322 9.98189 8.90625C9.98 8.94981 9.98852 8.98816 10.0075 9.02131C10.0273 9.05445 10.0558 9.08381 10.0927 9.10938C10.1306 9.134 10.176 9.15578 10.229 9.17472C10.2821 9.19366 10.3417 9.21023 10.408 9.22443L10.658 9.28125C10.802 9.3125 10.9289 9.35417 11.0387 9.40625C11.1495 9.45833 11.2423 9.52036 11.3171 9.59233C11.3929 9.6643 11.4502 9.74716 11.489 9.84091C11.5278 9.93466 11.5477 10.0398 11.5487 10.1562C11.5477 10.34 11.5013 10.4976 11.4094 10.6293C11.3176 10.7609 11.1855 10.8617 11.0131 10.9318C10.8417 11.0019 10.6348 11.0369 10.3924 11.0369C10.149 11.0369 9.93691 11.0005 9.75604 10.9276C9.57517 10.8546 9.43454 10.7438 9.33416 10.5952C9.23378 10.4465 9.18217 10.2585 9.17933 10.0312H9.85263C9.85831 10.125 9.8834 10.2031 9.92791 10.2656C9.97242 10.3281 10.0335 10.3755 10.1112 10.4077C10.1897 10.4399 10.2807 10.456 10.3839 10.456C10.4786 10.456 10.5591 10.4432 10.6254 10.4176C10.6926 10.392 10.7442 10.3565 10.7802 10.3111C10.8162 10.2656 10.8346 10.2135 10.8356 10.1548C10.8346 10.0999 10.8176 10.053 10.7844 10.0142C10.7513 9.97443 10.7002 9.94034 10.631 9.91193C10.5629 9.88258 10.4757 9.85559 10.3697 9.83097L10.0657 9.75994C9.8138 9.70218 9.61541 9.6089 9.47053 9.48011C9.32564 9.35038 9.25367 9.17519 9.25462 8.95455C9.25367 8.77462 9.30196 8.61695 9.3995 8.48153C9.49704 8.34612 9.63198 8.24053 9.80433 8.16477C9.97668 8.08902 10.1732 8.05114 10.3938 8.05114C10.6192 8.05114 10.8147 8.08949 10.9805 8.16619C11.1471 8.24195 11.2764 8.34848 11.3683 8.4858C11.4601 8.62311 11.507 8.7822 11.5089 8.96307H10.8356ZM13.4762 8.96307C13.4667 8.8589 13.4246 8.77794 13.3498 8.72017C13.2759 8.66146 13.1703 8.6321 13.033 8.6321C12.9421 8.6321 12.8664 8.64394 12.8058 8.66761C12.7451 8.69129 12.6997 8.72396 12.6694 8.76562C12.6391 8.80634 12.6235 8.85322 12.6225 8.90625C12.6206 8.94981 12.6291 8.98816 12.6481 9.02131C12.668 9.05445 12.6964 9.08381 12.7333 9.10938C12.7712 9.134 12.8166 9.15578 12.8697 9.17472C12.9227 9.19366 12.9824 9.21023 13.0487 9.22443L13.2987 9.28125C13.4426 9.3125 13.5695 9.35417 13.6793 9.40625C13.7901 9.45833 13.8829 9.52036 13.9577 9.59233C14.0335 9.6643 14.0908 9.74716 14.1296 9.84091C14.1684 9.93466 14.1883 10.0398 14.1893 10.1562C14.1883 10.34 14.1419 10.4976 14.0501 10.6293C13.9582 10.7609 13.8261 10.8617 13.6538 10.9318C13.4824 11.0019 13.2754 11.0369 13.033 11.0369C12.7897 11.0369 12.5775 11.0005 12.3967 10.9276C12.2158 10.8546 12.0752 10.7438 11.9748 10.5952C11.8744 10.4465 11.8228 10.2585 11.82 10.0312H12.4933C12.4989 10.125 12.524 10.2031 12.5685 10.2656C12.613 10.3281 12.6741 10.3755 12.7518 10.4077C12.8304 10.4399 12.9213 10.456 13.0245 10.456C13.1192 10.456 13.1997 10.4432 13.266 10.4176C13.3332 10.392 13.3848 10.3565 13.4208 10.3111C13.4568 10.2656 13.4753 10.2135 13.4762 10.1548C13.4753 10.0999 13.4582 10.053 13.4251 10.0142C13.3919 9.97443 13.3408 9.94034 13.2717 9.91193C13.2035 9.88258 13.1164 9.85559 13.0103 9.83097L12.7063 9.75994C12.4544 9.70218 12.256 9.6089 12.1112 9.48011C11.9663 9.35038 11.8943 9.17519 11.8952 8.95455C11.8943 8.77462 11.9426 8.61695 12.0401 8.48153C12.1377 8.34612 12.2726 8.24053 12.445 8.16477C12.6173 8.08902 12.8138 8.05114 13.0344 8.05114C13.2598 8.05114 13.4554 8.08949 13.6211 8.16619C13.7878 8.24195 13.917 8.34848 14.0089 8.4858C14.1007 8.62311 14.1476 8.7822 14.1495 8.96307H13.4762Z" fill="black"/>
<rect width="6" height="6" transform="translate(11 14)" fill="#5ED1D5"/>
<path d="M11 18L13 16.5L15 18H17V20H11V18Z" fill="#008E05"/>
</svg>
