<svg width="23" height="23" viewBox="0 0 23 23" fill="none" xmlns="http://www.w3.org/2000/svg">
<path d="M18.25 21.25H4.75V1.75H13.1035L18.25 6.89648V21.25Z" fill="#FFFDD4" stroke="black" stroke-width="0.5"/>
<path d="M18 7C16.0474 7 13 7 13 5.33333V2L18 7Z" fill="#D1CFC3"/>
<path d="M6.1266 6V4.32727H6.53089V4.99865H7.19002V4.32727H7.5935V6H7.19002V5.32781H6.53089V6H6.1266ZM7.79238 4.65561V4.32727H9.2062V4.65561H8.69899V6H8.30041V4.65561H7.79238ZM9.40365 4.32727H9.90432L10.329 5.36293H10.3486L10.7734 4.32727H11.274V6H10.8804V4.97251H10.8665L10.4646 5.98938H10.2131L9.81121 4.9668H9.79733V6H9.40365V4.32727ZM11.5262 6V4.32727H11.9305V5.67166H12.6264V6H11.5262Z" fill="black"/>
<path d="M9.4 9C8.6268 9 8 8.51831 8 8.51831V8.03663C8 8.03663 8.6268 8.51831 9.4 8.51831C10.1732 8.51831 10.0665 8.12075 10.8 8.03663C11.3187 7.97714 11.6639 7.99973 12.2 8.03663C13.7164 8.14097 15 9 15 9H13.6C13.6 9 12.9335 8.60244 12.2 8.51831C11.6813 8.45883 11.3187 8.45883 10.8 8.51831C10.0665 8.60244 10.1732 9 9.4 9Z" fill="black"/>
<path d="M6.12891 8.67081V8.44922L6.90021 8.12536V8.36772L6.39098 8.55788L6.39897 8.54616V8.5744L6.39098 8.56214L6.90021 8.75284V8.99467L6.12891 8.67081ZM7.93 8.67081L7.15869 8.99467V8.75284L7.66792 8.56214L7.66047 8.5744V8.54616L7.66792 8.55788L7.15869 8.36772V8.12536L7.93 8.44922V8.67081ZM14.9561 8.67081V8.44922L15.7274 8.12536V8.36772L15.2181 8.55788L15.2261 8.54616V8.5744L15.2181 8.56214L15.7274 8.75284V8.99467L14.9561 8.67081ZM16.4445 7.85795L16.0929 9.16406H15.8708L16.2223 7.85795H16.4445ZM17.3592 8.67081L16.5879 8.99467V8.75284L17.0971 8.56214L17.0897 8.5744V8.54616L17.0971 8.55788L16.5879 8.36772V8.12536L17.3592 8.44922V8.67081Z" fill="black"/>
<path d="M13.6 11C14.3732 11 15 10.5183 15 10.5183V10.0366C15 10.0366 14.3732 10.5183 13.6 10.5183C12.8268 10.5183 12.9335 10.1208 12.2 10.0366C11.6813 9.97714 11.3361 9.99973 10.8 10.0366C9.28363 10.141 8 11 8 11H9.4C9.4 11 10.0665 10.6024 10.8 10.5183C11.3187 10.4588 11.6813 10.4588 12.2 10.5183C12.9335 10.6024 12.8268 11 13.6 11Z" fill="black"/>
<path d="M6.12891 10.6708V10.4492L6.90021 10.1254V10.3677L6.39098 10.5579L6.39897 10.5462V10.5744L6.39098 10.5621L6.90021 10.7528V10.9947L6.12891 10.6708ZM7.93 10.6708L7.15869 10.9947V10.7528L7.66792 10.5621L7.66047 10.5744V10.5462L7.66792 10.5579L7.15869 10.3677V10.1254L7.93 10.4492V10.6708ZM14.9561 10.6708V10.4492L15.7274 10.1254V10.3677L15.2181 10.5579L15.2261 10.5462V10.5744L15.2181 10.5621L15.7274 10.7528V10.9947L14.9561 10.6708ZM16.4445 9.85795L16.0929 11.1641H15.8708L16.2223 9.85795H16.4445ZM17.3592 10.6708L16.5879 10.9947V10.7528L17.0971 10.5621L17.0897 10.5744V10.5462L17.0971 10.5579L16.5879 10.3677V10.1254L17.3592 10.4492V10.6708Z" fill="black"/>
<path d="M9.4 13C8.6268 13 8 12.5183 8 12.5183V12.0366C8 12.0366 8.6268 12.5183 9.4 12.5183C10.1732 12.5183 10.0665 12.1208 10.8 12.0366C11.3187 11.9771 11.6639 11.9997 12.2 12.0366C13.7164 12.141 15 13 15 13H13.6C13.6 13 12.9335 12.6024 12.2 12.5183C11.6813 12.4588 11.3187 12.4588 10.8 12.5183C10.0665 12.6024 10.1732 13 9.4 13Z" fill="black"/>
<path d="M6.12891 12.6708V12.4492L6.90021 12.1254V12.3677L6.39098 12.5579L6.39897 12.5462V12.5744L6.39098 12.5621L6.90021 12.7528V12.9947L6.12891 12.6708ZM7.93 12.6708L7.15869 12.9947V12.7528L7.66792 12.5621L7.66047 12.5744V12.5462L7.66792 12.5579L7.15869 12.3677V12.1254L7.93 12.4492V12.6708ZM14.9561 12.6708V12.4492L15.7274 12.1254V12.3677L15.2181 12.5579L15.2261 12.5462V12.5744L15.2181 12.5621L15.7274 12.7528V12.9947L14.9561 12.6708ZM16.4445 11.858L16.0929 13.1641H15.8708L16.2223 11.858H16.4445ZM17.3592 12.6708L16.5879 12.9947V12.7528L17.0971 12.5621L17.0897 12.5744V12.5462L17.0971 12.5579L16.5879 12.3677V12.1254L17.3592 12.4492V12.6708Z" fill="black"/>
<path d="M13.6 15C14.3732 15 15 14.5183 15 14.5183V14.0366C15 14.0366 14.3732 14.5183 13.6 14.5183C12.8268 14.5183 12.9335 14.1208 12.2 14.0366C11.6813 13.9771 11.3361 13.9997 10.8 14.0366C9.28363 14.141 8 15 8 15H9.4C9.4 15 10.0665 14.6024 10.8 14.5183C11.3187 14.4588 11.6813 14.4588 12.2 14.5183C12.9335 14.6024 12.8268 15 13.6 15Z" fill="black"/>
<path d="M6.12891 14.6708V14.4492L6.90021 14.1254V14.3677L6.39098 14.5579L6.39897 14.5462V14.5744L6.39098 14.5621L6.90021 14.7528V14.9947L6.12891 14.6708ZM7.93 14.6708L7.15869 14.9947V14.7528L7.66792 14.5621L7.66047 14.5744V14.5462L7.66792 14.5579L7.15869 14.3677V14.1254L7.93 14.4492V14.6708ZM14.9561 14.6708V14.4492L15.7274 14.1254V14.3677L15.2181 14.5579L15.2261 14.5462V14.5744L15.2181 14.5621L15.7274 14.7528V14.9947L14.9561 14.6708ZM16.4445 13.858L16.0929 15.1641H15.8708L16.2223 13.858H16.4445ZM17.3592 14.6708L16.5879 14.9947V14.7528L17.0971 14.5621L17.0897 14.5744V14.5462L17.0971 14.5579L16.5879 14.3677V14.1254L17.3592 14.4492V14.6708Z" fill="black"/>
<path d="M9.4 17C8.6268 17 8 16.5183 8 16.5183V16.0366C8 16.0366 8.6268 16.5183 9.4 16.5183C10.1732 16.5183 10.0665 16.1208 10.8 16.0366C11.3187 15.9771 11.6639 15.9997 12.2 16.0366C13.7164 16.141 15 17 15 17H13.6C13.6 17 12.9335 16.6024 12.2 16.5183C11.6813 16.4588 11.3187 16.4588 10.8 16.5183C10.0665 16.6024 10.1732 17 9.4 17Z" fill="black"/>
<path d="M6.12891 16.6708V16.4492L6.90021 16.1254V16.3677L6.39098 16.5579L6.39897 16.5462V16.5744L6.39098 16.5621L6.90021 16.7528V16.9947L6.12891 16.6708ZM7.93 16.6708L7.15869 16.9947V16.7528L7.66792 16.5621L7.66047 16.5744V16.5462L7.66792 16.5579L7.15869 16.3677V16.1254L7.93 16.4492V16.6708ZM14.9561 16.6708V16.4492L15.7274 16.1254V16.3677L15.2181 16.5579L15.2261 16.5462V16.5744L15.2181 16.5621L15.7274 16.7528V16.9947L14.9561 16.6708ZM16.4445 15.858L16.0929 17.1641H15.8708L16.2223 15.858H16.4445ZM17.3592 16.6708L16.5879 16.9947V16.7528L17.0971 16.5621L17.0897 16.5744V16.5462L17.0971 16.5579L16.5879 16.3677V16.1254L17.3592 16.4492V16.6708Z" fill="black"/>
<path d="M13.6 19C14.3732 19 15 18.5183 15 18.5183V18.0366C15 18.0366 14.3732 18.5183 13.6 18.5183C12.8268 18.5183 12.9335 18.1208 12.2 18.0366C11.6813 17.9771 11.3361 17.9997 10.8 18.0366C9.28363 18.141 8 19 8 19H9.4C9.4 19 10.0665 18.6024 10.8 18.5183C11.3187 18.4588 11.6813 18.4588 12.2 18.5183C12.9335 18.6024 12.8268 19 13.6 19Z" fill="black"/>
<path d="M6.12891 18.6708V18.4492L6.90021 18.1254V18.3677L6.39098 18.5579L6.39897 18.5462V18.5744L6.39098 18.5621L6.90021 18.7528V18.9947L6.12891 18.6708ZM7.93 18.6708L7.15869 18.9947V18.7528L7.66792 18.5621L7.66047 18.5744V18.5462L7.66792 18.5579L7.15869 18.3677V18.1254L7.93 18.4492V18.6708ZM14.9561 18.6708V18.4492L15.7274 18.1254V18.3677L15.2181 18.5579L15.2261 18.5462V18.5744L15.2181 18.5621L15.7274 18.7528V18.9947L14.9561 18.6708ZM16.4445 17.858L16.0929 19.1641H15.8708L16.2223 17.858H16.4445ZM17.3592 18.6708L16.5879 18.9947V18.7528L17.0971 18.5621L17.0897 18.5744V18.5462L17.0971 18.5579L16.5879 18.3677V18.1254L17.3592 18.4492V18.6708Z" fill="black"/>
</svg>
