<svg width="33" height="33" viewBox="0 0 33 33" fill="none" xmlns="http://www.w3.org/2000/svg">
<path d="M7 24.5993L6 8.99989C6 8.99989 11.9746 6 16 6C20.0254 6 26 8.99989 26 8.99989L25.5 24.5993C25.5 24.5993 19.7911 27.05 16 26.9992C12.3998 26.9509 7 24.5993 7 24.5993Z" fill="black" stroke="black" stroke-width="2"/>
<path d="M21 22V20C21 20 23.2078 20.21 24 20C24.7922 19.79 24.8173 14.815 24 14C23.1827 13.185 21 14 21 14V12C22.2771 11.1921 25.5 11 25.5 11C25.5 11 26.5 11.5 27 12C27.591 15.3662 27.7045 17.2363 27 20.5C26.472 21.9783 26 23 25 23C24 23 21 22 21 22Z" stroke="black" stroke-width="2"/>
<path d="M7 24.5993L6 8.99989C6 8.99989 11.9746 6 16 6C20.0254 6 26 8.99989 26 8.99989L25.5 24.5993C25.5 24.5993 19.7911 27.05 16 26.9992C12.3998 26.951 7 24.5993 7 24.5993Z" fill="#4DA0FF"/>
<path d="M23 14.5L21 14L22.5 13H24.5L26 14.5H23Z" fill="#30465F"/>
<path d="M25.5 19.5L21 20L26 20.5L25.5 19.5Z" fill="#30465F"/>
<path d="M21 22V20C21 20 23.2078 20.21 24 20C24.7922 19.79 24.8173 14.815 24 14C23.1827 13.185 21 14 21 14V12C22.2771 11.1921 25.5 11 25.5 11C25.5 11 26.5 11.5 27 12C27.591 15.3662 27.7045 17.2363 27 20.5C26.472 21.9783 26 23 25 23C24 23 21 22 21 22Z" fill="#4C7EB7"/>
<path d="M9.79261 19.9631C9.78314 19.8589 9.741 19.7779 9.66619 19.7202C9.59233 19.6615 9.48674 19.6321 9.34943 19.6321C9.25852 19.6321 9.18277 19.6439 9.12216 19.6676C9.06155 19.6913 9.0161 19.724 8.9858 19.7656C8.95549 19.8063 8.93987 19.8532 8.93892 19.9062C8.93703 19.9498 8.94555 19.9882 8.96449 20.0213C8.98438 20.0545 9.01278 20.0838 9.04972 20.1094C9.08759 20.134 9.13305 20.1558 9.18608 20.1747C9.23911 20.1937 9.29877 20.2102 9.36506 20.2244L9.61506 20.2812C9.759 20.3125 9.88589 20.3542 9.99574 20.4062C10.1065 20.4583 10.1993 20.5204 10.2741 20.5923C10.3499 20.6643 10.4072 20.7472 10.446 20.8409C10.4848 20.9347 10.5047 21.0398 10.5057 21.1562C10.5047 21.34 10.4583 21.4976 10.3665 21.6293C10.2746 21.7609 10.1425 21.8617 9.97017 21.9318C9.79877 22.0019 9.59186 22.0369 9.34943 22.0369C9.10606 22.0369 8.89394 22.0005 8.71307 21.9276C8.5322 21.8546 8.39157 21.7438 8.29119 21.5952C8.19081 21.4465 8.1392 21.2585 8.13636 21.0312H8.80966C8.81534 21.125 8.84044 21.2031 8.88494 21.2656C8.92945 21.3281 8.99053 21.3755 9.06818 21.4077C9.14678 21.4399 9.23769 21.456 9.34091 21.456C9.43561 21.456 9.5161 21.4432 9.58239 21.4176C9.64962 21.392 9.70123 21.3565 9.73722 21.3111C9.7732 21.2656 9.79167 21.2135 9.79261 21.1548C9.79167 21.0999 9.77462 21.053 9.74148 21.0142C9.70833 20.9744 9.6572 20.9403 9.58807 20.9119C9.51989 20.8826 9.43277 20.8556 9.3267 20.831L9.02273 20.7599C8.77083 20.7022 8.57244 20.6089 8.42756 20.4801C8.28267 20.3504 8.2107 20.1752 8.21165 19.9545C8.2107 19.7746 8.259 19.617 8.35653 19.4815C8.45407 19.3461 8.58902 19.2405 8.76136 19.1648C8.93371 19.089 9.13021 19.0511 9.35085 19.0511C9.57623 19.0511 9.77178 19.0895 9.9375 19.1662C10.1042 19.242 10.2334 19.3485 10.3253 19.4858C10.4171 19.6231 10.464 19.7822 10.4659 19.9631H9.79261ZM11.8793 22.0412C11.6491 22.0412 11.4517 21.9938 11.2869 21.8991C11.1231 21.8045 10.9972 21.6728 10.9091 21.5043C10.821 21.3348 10.777 21.1387 10.777 20.9162C10.777 20.6927 10.821 20.4967 10.9091 20.3281C10.9981 20.1586 11.1245 20.0265 11.2884 19.9318C11.4531 19.8371 11.6496 19.7898 11.8778 19.7898C12.0795 19.7898 12.2552 19.8262 12.4048 19.8991C12.5554 19.9721 12.6728 20.0753 12.7571 20.2088C12.8423 20.3414 12.8873 20.4972 12.892 20.6761H12.2429C12.2296 20.5644 12.1918 20.4768 12.1293 20.4134C12.0677 20.3499 11.9872 20.3182 11.8878 20.3182C11.8073 20.3182 11.7367 20.3409 11.6761 20.3864C11.6155 20.4309 11.5682 20.4972 11.5341 20.5852C11.5009 20.6723 11.4844 20.7803 11.4844 20.9091C11.4844 21.0379 11.5009 21.1468 11.5341 21.2358C11.5682 21.3239 11.6155 21.3906 11.6761 21.4361C11.7367 21.4806 11.8073 21.5028 11.8878 21.5028C11.9522 21.5028 12.009 21.4891 12.0582 21.4616C12.1084 21.4342 12.1496 21.3939 12.1818 21.3409C12.214 21.2869 12.2344 21.2216 12.2429 21.1449H12.892C12.8854 21.3248 12.8404 21.482 12.7571 21.6165C12.6747 21.7509 12.5587 21.8556 12.4091 21.9304C12.2604 22.0043 12.0838 22.0412 11.8793 22.0412ZM13.2475 22V19.8182H13.9222V20.2159H13.945C13.9847 20.072 14.0496 19.965 14.1396 19.8949C14.2295 19.8239 14.3342 19.7884 14.4535 19.7884C14.4857 19.7884 14.5188 19.7907 14.5529 19.7955C14.587 19.7992 14.6187 19.8054 14.6481 19.8139V20.4176C14.6149 20.4062 14.5714 20.3973 14.5174 20.3906C14.4644 20.384 14.417 20.3807 14.3754 20.3807C14.293 20.3807 14.2186 20.3991 14.1523 20.4361C14.087 20.4721 14.0354 20.5227 13.9975 20.5881C13.9606 20.6525 13.9421 20.7282 13.9421 20.8153V22H13.2475ZM14.9311 22V19.8182H15.6257V22H14.9311ZM15.2791 19.5639C15.1816 19.5639 15.0978 19.5317 15.0277 19.4673C14.9576 19.402 14.9226 19.3234 14.9226 19.2315C14.9226 19.1406 14.9576 19.063 15.0277 18.9986C15.0978 18.9332 15.1816 18.9006 15.2791 18.9006C15.3776 18.9006 15.4614 18.9332 15.5305 18.9986C15.6006 19.063 15.6357 19.1406 15.6357 19.2315C15.6357 19.3234 15.6006 19.402 15.5305 19.4673C15.4614 19.5317 15.3776 19.5639 15.2791 19.5639ZM16.0678 22.8182V19.8182H16.7553V20.1918H16.7766C16.805 20.1255 16.8453 20.0616 16.8974 20C16.9504 19.9384 17.0176 19.8883 17.0991 19.8494C17.1815 19.8097 17.2799 19.7898 17.3945 19.7898C17.546 19.7898 17.6876 19.8295 17.8192 19.9091C17.9518 19.9886 18.0588 20.1113 18.1403 20.277C18.2217 20.4427 18.2624 20.6539 18.2624 20.9105C18.2624 21.1577 18.2231 21.3646 18.1445 21.5312C18.0669 21.6979 17.9618 21.8229 17.8292 21.9062C17.6976 21.9896 17.5513 22.0312 17.3903 22.0312C17.2804 22.0312 17.1853 22.0133 17.1048 21.9773C17.0243 21.9413 16.9566 21.8939 16.9016 21.8352C16.8477 21.7765 16.806 21.7135 16.7766 21.6463H16.7624V22.8182H16.0678ZM16.7482 20.9091C16.7482 21.0265 16.7638 21.1288 16.7951 21.2159C16.8273 21.303 16.8732 21.3707 16.9329 21.419C16.9935 21.4664 17.0659 21.4901 17.1502 21.4901C17.2354 21.4901 17.3079 21.4664 17.3675 21.419C17.4272 21.3707 17.4722 21.303 17.5025 21.2159C17.5337 21.1288 17.5494 21.0265 17.5494 20.9091C17.5494 20.7917 17.5337 20.6899 17.5025 20.6037C17.4722 20.5175 17.4272 20.4508 17.3675 20.4034C17.3088 20.3561 17.2364 20.3324 17.1502 20.3324C17.065 20.3324 16.9925 20.3556 16.9329 20.402C16.8732 20.4484 16.8273 20.5147 16.7951 20.6009C16.7638 20.687 16.7482 20.7898 16.7482 20.9091ZM19.858 19.8182V20.3295H18.4815V19.8182H19.858ZM18.7699 19.2955H19.4645V21.3139C19.4645 21.3565 19.4711 21.3911 19.4844 21.4176C19.4986 21.4432 19.5189 21.4616 19.5455 21.473C19.572 21.4834 19.6037 21.4886 19.6406 21.4886C19.6671 21.4886 19.6951 21.4863 19.7244 21.4815C19.7547 21.4759 19.7775 21.4711 19.7926 21.4673L19.8977 21.9688C19.8646 21.9782 19.8177 21.9901 19.7571 22.0043C19.6974 22.0185 19.6259 22.0275 19.5426 22.0312C19.3797 22.0388 19.2401 22.0199 19.1236 21.9744C19.008 21.928 18.9195 21.8561 18.858 21.7585C18.7973 21.661 18.768 21.5384 18.7699 21.3906V19.2955Z" fill="black"/>
<path d="M9.57724 12.7273H10.3571V14.9901C10.356 15.2021 10.3054 15.3874 10.2053 15.5462C10.1051 15.7038 9.96662 15.8263 9.78977 15.9137C9.61399 16.0011 9.41051 16.0447 9.17933 16.0447C8.97479 16.0447 8.78888 16.0091 8.62163 15.9377C8.45543 15.8663 8.3228 15.7555 8.22372 15.6053C8.12571 15.4551 8.07724 15.2628 8.0783 15.0284H8.86612C8.86932 15.1126 8.8853 15.1845 8.91406 15.2441C8.94389 15.3027 8.98491 15.3469 9.03711 15.3768C9.08931 15.4066 9.15163 15.4215 9.22408 15.4215C9.29972 15.4215 9.36364 15.4055 9.41584 15.3736C9.46804 15.3406 9.50746 15.2921 9.53409 15.2282C9.56179 15.1642 9.57617 15.0849 9.57724 14.9901V12.7273ZM11.5616 16H10.7114L11.8157 12.7273H12.8687L13.973 16H13.1228L12.3542 13.5518H12.3286L11.5616 16ZM11.4481 14.712H13.2251V15.3129H11.4481V14.712ZM14.629 12.7273L15.3608 15.1243H15.388L16.1199 12.7273H17.0052L15.901 16H14.8479L13.7437 12.7273H14.629ZM17.5777 16H16.7275L17.8318 12.7273H18.8849L19.9891 16H19.1389L18.3703 13.5518H18.3447L17.5777 16ZM17.4642 14.712H19.2412V15.3129H17.4642V14.712Z" fill="black"/>
</svg>
