<svg width="33" height="33" viewBox="0 0 33 33" fill="none" xmlns="http://www.w3.org/2000/svg">
<path d="M7 24.5993L6 8.99989C6 8.99989 11.9746 6 16 6C20.0254 6 26 8.99989 26 8.99989L25.5 24.5993C25.5 24.5993 19.7911 27.05 16 26.9992C12.3998 26.9509 7 24.5993 7 24.5993Z" fill="black" stroke="black" stroke-width="2"/>
<path d="M21 22V20C21 20 23.2078 20.21 24 20C24.7922 19.79 24.8173 14.815 24 14C23.1827 13.185 21 14 21 14V12C22.2771 11.1921 25.5 11 25.5 11C25.5 11 26.5 11.5 27 12C27.591 15.3662 27.7045 17.2363 27 20.5C26.472 21.9783 26 23 25 23C24 23 21 22 21 22Z" stroke="black" stroke-width="2"/>
<path d="M7 24.5993L6 8.99989C6 8.99989 11.9746 6 16 6C20.0254 6 26 8.99989 26 8.99989L25.5 24.5993C25.5 24.5993 19.7911 27.05 16 26.9992C12.3998 26.951 7 24.5993 7 24.5993Z" fill="#4DA0FF"/>
<path d="M23 14.5L21 14L22.5 13H24.5L26 14.5H23Z" fill="#30465F"/>
<path d="M25.5 19.5L21 20L26 20.5L25.5 19.5Z" fill="#30465F"/>
<path d="M21 22V20C21 20 23.2078 20.21 24 20C24.7922 19.79 24.8173 14.815 24 14C23.1827 13.185 21 14 21 14V12C22.2771 11.1921 25.5 11 25.5 11C25.5 11 26.5 11.5 27 12C27.591 15.3662 27.7045 17.2363 27 20.5C26.472 21.9783 26 23 25 23C24 23 21 22 21 22Z" fill="#4C7EB7"/>
<path d="M9.75249 15.3636H10.619V17.8778C10.6178 18.1134 10.5616 18.3194 10.4503 18.4957C10.339 18.6709 10.1851 18.8071 9.98864 18.9041C9.79332 19.0012 9.56723 19.0497 9.31037 19.0497C9.0831 19.0497 8.87654 19.0101 8.6907 18.9308C8.50604 18.8514 8.35866 18.7283 8.24858 18.5614C8.13968 18.3945 8.08582 18.1809 8.087 17.9205H8.96236C8.96591 18.014 8.98366 18.0939 9.01562 18.1602C9.04877 18.2253 9.09434 18.2744 9.15234 18.3075C9.21035 18.3407 9.27959 18.3572 9.36009 18.3572C9.44413 18.3572 9.51515 18.3395 9.57315 18.304C9.63116 18.2673 9.67495 18.2134 9.70455 18.1424C9.73532 18.0714 9.7513 17.9832 9.75249 17.8778V15.3636ZM11.9573 19H11.0127L12.2396 15.3636H13.4097L14.6366 19H13.692L12.838 16.2798H12.8096L11.9573 19ZM11.8312 17.5689H13.8057V18.2365H11.8312V17.5689ZM15.3655 15.3636L16.1787 18.027H16.2089L17.0221 15.3636H18.0058L16.7789 19H15.6088L14.3818 15.3636H15.3655ZM18.6419 19H17.6973L18.9242 15.3636H20.0943L21.3212 19H20.3766L19.5225 16.2798H19.4941L18.6419 19ZM18.5158 17.5689H20.4902V18.2365H18.5158V17.5689Z" fill="black"/>
</svg>
